<?xml version="1.0" standalone="no"?>
<!DOCTYPE svg PUBLIC "-//W3C//DTD SVG 20010904//EN"
 "http://www.w3.org/TR/2001/REC-SVG-20010904/DTD/svg10.dtd">
<svg version="1.0" xmlns="http://www.w3.org/2000/svg"
 width="428.000000pt" height="94.000000pt" viewBox="0 0 428.000000 94.000000"
 preserveAspectRatio="xMidYMid meet">

<g transform="translate(0.000000,94.000000) scale(0.100000,-0.100000)"
fill="#000000" stroke="none">
<path d="M268 914 c-82 -44 -74 -165 13 -203 28 -13 36 -20 25 -24 -8 -3 -29
-24 -45 -47 -27 -37 -30 -39 -36 -20 -9 27 -62 60 -98 60 -36 0 -81 -23 -101
-52 -9 -12 -16 -42 -16 -66 0 -82 91 -139 162 -101 26 14 34 4 42 -53 l6 -48
-31 0 c-46 0 -99 -56 -99 -104 0 -78 63 -134 135 -120 38 7 82 45 91 79 l5 21
43 -20 42 -21 -19 -33 c-27 -45 -18 -98 23 -135 25 -22 40 -27 81 -27 44 0 55
4 80 31 33 36 39 91 15 138 -15 27 -14 28 29 49 l44 21 18 -37 c26 -52 81 -79
133 -63 54 16 80 52 80 112 0 40 -5 52 -31 78 -23 24 -39 31 -69 31 l-39 0 10
32 c5 18 9 46 9 61 0 27 1 28 22 13 28 -20 80 -20 116 -2 37 19 57 59 56 109
-1 33 -8 47 -38 74 -51 47 -104 47 -153 -2 l-35 -35 -38 42 -38 43 28 11 c43
19 70 61 70 111 0 38 -5 50 -34 79 -26 26 -42 34 -70 34 -82 0 -139 -68 -119
-142 l10 -38 -57 0 -57 0 5 55 c4 52 3 56 -31 90 -28 28 -43 35 -73 35 -22 -1
-51 -7 -66 -16z m92 -52 c25 -20 30 -63 10 -87 -16 -20 -64 -19 -85 1 -24 25
-16 76 15 91 32 16 34 16 60 -5z m325 -7 c29 -28 31 -42 9 -73 -18 -26 -60
-29 -86 -5 -38 34 -11 97 45 102 4 1 19 -10 32 -24z m-85 -193 c120 -74 148
-235 57 -338 -108 -124 -297 -100 -371 48 -34 68 -34 128 0 196 60 121 202
163 314 94z m-437 -60 c21 -19 22 -55 1 -76 -43 -43 -120 5 -95 60 11 25 48
46 66 36 6 -3 18 -12 28 -20z m722 3 c29 -28 31 -42 9 -73 -29 -42 -104 -18
-104 34 0 21 41 64 62 64 5 0 20 -11 33 -25z m-643 -312 c25 -23 23 -68 -4
-87 -32 -23 -54 -20 -77 10 -26 33 -26 35 0 68 23 30 54 33 81 9z m580 -14
c40 -53 -21 -112 -77 -75 -33 22 -34 68 -2 91 29 21 56 16 79 -16z m-290 -140
c39 -52 -22 -111 -77 -75 -33 22 -34 68 -2 91 29 21 56 16 79 -16z"/>
<path d="M1262 728 c-18 -18 -14 -73 6 -91 13 -12 37 -17 80 -17 l62 0 0 -213
c0 -195 2 -215 18 -230 26 -24 79 -22 92 2 6 12 10 104 10 230 l0 211 63 0
c75 0 107 18 107 60 0 57 -12 60 -229 60 -140 0 -200 -3 -209 -12z"/>
<path d="M1922 728 c-17 -17 -17 -539 0 -556 18 -18 73 -14 91 6 14 15 17 40
17 125 l0 107 69 0 69 0 92 -125 c86 -117 94 -125 125 -125 35 0 65 28 65 61
0 9 -29 53 -65 99 -62 79 -70 100 -40 100 20 0 73 48 90 81 37 71 5 178 -65
218 -35 19 -53 21 -237 21 -141 0 -202 -3 -211 -12z m392 -127 c14 -15 15 -24
7 -39 -15 -29 -31 -32 -167 -32 l-124 0 0 45 0 45 133 0 c119 0 136 -2 151
-19z"/>
<path d="M2692 728 c-17 -17 -17 -539 0 -556 18 -18 73 -14 91 6 15 16 17 50
17 274 0 234 -1 256 -18 271 -22 20 -73 22 -90 5z"/>
<path d="M3026 724 c-14 -13 -16 -52 -16 -274 0 -222 2 -261 16 -274 13 -13
46 -16 205 -16 167 0 194 2 227 19 93 48 129 159 82 256 -19 39 -19 44 -5 71
37 71 9 162 -64 211 -32 22 -43 23 -232 23 -166 0 -200 -2 -213 -16z m390
-130 c12 -17 12 -23 0 -40 -13 -17 -27 -19 -148 -19 l-133 0 -3 43 -3 43 137
-3 c125 -3 138 -5 150 -24z m-6 -202 c14 -11 23 -29 23 -47 0 -54 -29 -65
-174 -65 l-129 0 0 65 0 65 129 0 c109 0 132 -3 151 -18z"/>
<path d="M3730 720 c-7 -14 -10 -89 -8 -219 3 -197 3 -198 31 -239 15 -23 46
-54 69 -69 38 -26 51 -28 157 -31 133 -4 176 5 228 51 66 58 73 87 73 307 0
213 -2 220 -55 220 -59 0 -63 -15 -67 -217 l-3 -183 -28 -27 c-25 -25 -35 -28
-111 -31 -62 -3 -91 0 -114 12 -55 28 -62 56 -62 245 0 190 -4 201 -65 201
-24 0 -38 -6 -45 -20z"/>
</g>
</svg>
